<svg id="Group_18"  xmlns="http://www.w3.org/2000/svg" xmlns:xlink="http://www.w3.org/1999/xlink" width="152" height="122.906" viewBox="0 0 152 122.906">
  <defs>
    <clipPath id="clip-path">
      <rect id="Rectangle_47"  width="152" height="122.906" fill="none" stroke="#94f5eb" stroke-width="5"/>
    </clipPath>
  </defs>
  <g id="Group_17" clip-path="url(#clip-path)">
    <path id="Path_43"  d="M142.209,60.99a58.319,58.319,0,0,0-114.868.31,10.845,10.845,0,1,0,.14,19.777,58.327,58.327,0,0,0,114.582.32,10.845,10.845,0,1,0,.146-20.407Z" transform="translate(-8.438 -9.104)" fill="none" stroke="#94f5eb" stroke-linecap="round" stroke-linejoin="round" stroke-width="5"/>
    <path id="Path_44"  d="M166.779,160.634a8.01,8.01,0,1,0-16.02,0" transform="translate(-106.002 -107.279)" fill="none" stroke="#94f5eb" stroke-linecap="round" stroke-linejoin="round" stroke-width="5"/>
    <path id="Path_45"  d="M320.954,160.634a8.01,8.01,0,1,0-16.02,0" transform="translate(-214.407 -107.279)" fill="none" stroke="#94f5eb" stroke-linecap="round" stroke-linejoin="round" stroke-width="5"/>
    <path id="Path_46"  d="M232.9,245.656a16.02,16.02,0,1,1-32.04,0" transform="translate(-141.233 -172.727)" fill="none" stroke="#94f5eb" stroke-linecap="round" stroke-linejoin="round" stroke-width="5"/>
    <path id="Path_47"  d="M237.662,32.834c8.1-3.65,4.036-11.442-1.147-11.442a8.7,8.7,0,0,0-8.669,8.722,10.435,10.435,0,0,0,10.4,10.468,12.522,12.522,0,0,0,12.483-12.561,15.026,15.026,0,0,0-14.979-15.073" transform="translate(-160.204 -9.104)" fill="none" stroke="#94f5eb" stroke-linecap="round" stroke-linejoin="round" stroke-width="5"/>
  </g>
</svg>
