<svg xmlns="http://www.w3.org/2000/svg" width="42.566" height="42.568" viewBox="0 0 42.566 42.568"><g transform="translate(68.827 -15.611)"><path d="M-26.527,24.225a1.106,1.106,0,0,0-.881-.741l-6.29-.96-2.824-6.016a1.155,1.155,0,0,0-1.575-.427,1.167,1.167,0,0,0-.426.427l-2.824,6.016-6.291.96a1.107,1.107,0,0,0-.926,1.26,1.111,1.111,0,0,0,.3.606l4.584,4.7L-44.762,36.7a1.108,1.108,0,0,0,.454,1.082,1.094,1.094,0,0,0,1.172.063l5.614-3.1,5.614,3.1a1.108,1.108,0,0,0,1.172-.063,1.11,1.11,0,0,0,.454-1.082l-1.085-6.646,4.585-4.7A1.111,1.111,0,0,0-26.527,24.225ZM-33.34,28.9a1.108,1.108,0,0,0-.3.949l.809,4.952-4.157-2.3a1.1,1.1,0,0,0-1.069,0l-4.157,2.3.809-4.952a1.108,1.108,0,0,0-.3-.949l-3.471-3.558,4.747-.725A1.112,1.112,0,0,0-39.6,24l2.073-4.419L-35.449,24a1.108,1.108,0,0,0,.832.622l4.747.725Z" transform="translate(-0.053)" fill="#64fcd4" stroke="#64fcd4" stroke-miterlimit="10" stroke-width="0.5"/><path d="M-46.549,30.574a1.105,1.105,0,0,0-1.437-.616C-59.84,34.7-66.376,41.981-68.553,52.873a1.1,1.1,0,0,0,.865,1.3h0a1.111,1.111,0,0,0,.218.022,1.105,1.105,0,0,0,1.083-.89c2.045-10.228,7.973-16.8,19.221-21.3A1.1,1.1,0,0,0-46.549,30.574Z" transform="translate(0 -0.687)" fill="#64fcd4" stroke="#64fcd4" stroke-miterlimit="10" stroke-width="0.5"/><path d="M-46.607,37.364a1.1,1.1,0,0,0-1.531-.3l0,0A24.386,24.386,0,0,0-58.575,56.774a1.1,1.1,0,0,0,1.105,1.105,1.106,1.106,0,0,0,1.105-1.105A22.119,22.119,0,0,1-46.9,38.9a1.107,1.107,0,0,0,.3-1.535Z" transform="translate(0.308 0.05)" fill="#64fcd4" stroke="#64fcd4" stroke-miterlimit="10" stroke-width="0.5"/><path d="M-41.634,38.217c-6.265,6.5-6.941,15.07-6.941,18.451a1.1,1.1,0,0,0,1.105,1.105,1.106,1.106,0,0,0,1.105-1.105c0-3.114.616-11,6.322-16.918a1.1,1.1,0,0,0-.03-1.562,1.1,1.1,0,0,0-1.562.029Z" transform="translate(0.756 0.155)" fill="#64fcd4" stroke="#64fcd4" stroke-miterlimit="10" stroke-width="0.5"/></g></svg>