<?xml version="1.0" encoding="UTF-8"?>
<svg width="375px" height="133px" version="1.1"  preserveAspectRatio="none" xmlns="http://www.w3.org/2000/svg"
     xmlns:xlink="http://www.w3.org/1999/xlink">
    <defs>
        <rect id="path-1" x="0" y="0" width="100%" height="133"></rect>
    </defs>
    <g id="Page-1" stroke="none" stroke-width="1" fill="none" fill-rule="evenodd">
        <g id="navBarBackground">
            <mask id="mask-2" fill="white">
                <use xlink:href="#path-1"></use>
            </mask>
            <g id="Mask"></g>
            <g id="Group-99" mask="url(#mask-2)">
                <g transform="translate(-176.000000, -282.000000)" id="Group">
                    <g opacity="0.647"
                       transform="translate(292.839669, 276.505761) rotate(14.008443) translate(-292.839669, -276.505761) translate(142.339669, 115.005761)">
                        <path d="M194.2999,47.0074029 C196.805229,52.3586349 199.33555,57.5905655 201.890865,62.7031947 C209.056944,77.1933098 222.959217,88.3393215 238.887946,93.394966 C244.547762,95.2324734 250.21291,97.0276587 255.883389,98.7805221 C275.897023,105.325767 290.783032,115.961916 297.186316,125.7173 C303.572603,135.71462 301.477165,144.837174 287.118015,153.995718 C283.073766,156.533705 279.011522,159.221984 274.931282,162.060556 C263.466356,169.958439 258.501687,182.068192 261.840792,191.990532 C263.030473,195.498258 264.218155,198.945001 265.403837,202.330759 C269.621706,214.073611 260.863054,228.082855 246.261969,241.658215 C231.665882,254.828684 211.223363,267.56427 192.129482,267.406312 C186.734929,267.350994 181.342708,267.159712 175.952819,266.832466 C160.802881,265.925709 142.911678,271.968089 128.050662,286.079306 C122.766079,291.094628 117.481829,296.24458 112.197912,301.529164 C93.5179207,320.275138 72.924442,327.199281 57.9124668,319.815261 C42.9014914,312.835132 33.4690203,291.54784 37.1800254,263.230432 C38.2190801,255.299225 39.2744638,247.427002 40.3461765,239.613764 C43.350371,217.714635 38.1867555,197.344096 26.6398513,182.706021 C22.5296199,177.528076 18.4443819,172.198505 14.3841371,166.717308 C-0.0449943171,147.494462 -2.07844913,117.69745 4.50278639,94.4166921 C11.0850216,70.8919992 26.2809475,53.8845591 46.3525661,54.5853712 C52.0443735,54.6860109 57.7291826,54.8293058 63.4069937,55.0152559 C79.3887089,55.4321442 93.5049242,46.5095364 101.108886,32.0524124 C103.820825,26.8698019 106.520101,21.806826 109.206714,16.8634847 C128.465551,-18.7639633 176.459683,9.75838965 194.2999,47.0074029 Z"
                              id="Path" fill="#FCFC9C" fill-rule="nonzero"></path>
                    </g>
                    <g>
                        <path d="M252.957,58.428 C304.728333,49.076 356.5,33.5623333 408.272,11.887 C447.765,-5.446 506.33,-6.155 573.146,25.5 C637.61,55.751 710.325,118.369 723.774,195.171 C723.952,196.057 724.126333,196.943 724.297,197.829 C740.948,274.335 693.243,339.17 634.763,365.839 C574.963,394.506 504.381,385.007 444.704,358.962 C368.644,327.116 292.584,304.324667 216.524,290.588 C96.793,266.94 -25.747,240.048 4.715,180.826 C4.88766667,180.492667 5.062,180.156667 5.238,179.818 C19.414,150.753 68.359,124.126 116.027,103.118 C164.942,82.038 212.582,66.578 252.957,58.428 Z"
                              id="Path" fill="#94F5EB" fill-rule="nonzero"></path>
                    </g>
                </g>
            </g>
        </g>
    </g>
</svg>
