<svg xmlns="http://www.w3.org/2000/svg" xmlns:xlink="http://www.w3.org/1999/xlink" width="45" height="45" viewBox="0 0 45 45"><defs><clipPath id="a"><rect width="45" height="45" fill="#bcfdac" stroke="#bcfdac" stroke-width="0.5"/></clipPath></defs><g clip-path="url(#a)"><path d="M25.7,275.39a2.308,2.308,0,0,1-1.542.885L12.331,277.8h-.01a2.29,2.29,0,0,1-.3.019,2.327,2.327,0,0,1-2.3-2.027L8.247,264.32a2.332,2.332,0,0,1,2.008-2.6L22.1,260.2a2.321,2.321,0,0,1,2.6,2.008l1.476,11.47A2.309,2.309,0,0,1,25.7,275.39Zm.8-13.419a4.16,4.16,0,0,0-4.116-3.621,4.245,4.245,0,0,0-.531.034l-11.84,1.523a4.16,4.16,0,0,0-3.587,4.646L7.91,276.024a4.158,4.158,0,0,0,4.114,3.621,4.253,4.253,0,0,0,.532-.034l11.84-1.523a4.155,4.155,0,0,0,3.587-4.646Z" transform="translate(-5.831 -235.411)" fill="#bcfdac" stroke="#bcfdac" stroke-width="0.5"/></g><g clip-path="url(#a)"><path d="M83.362,330.716l-2.754.352.876-2.949c.03-.122.063-.251.1-.38Zm-1.389-4.7-1.207.154a.787.787,0,0,0-.689.61l-2.724,9.056,1.926-.246.813-2.753,4.213-.539,1.48,2.459,1.937-.248-4.9-8.045A.813.813,0,0,0,81.973,326.014Z" transform="translate(-70.485 -297.06)" fill="#bcfdac" stroke="#bcfdac" stroke-width="0.5"/></g><g clip-path="url(#a)"><path d="M289.464,288.346c-.066.031-.131.06-.2.089l-.02.009a8.573,8.573,0,0,1-3.437.714,8.812,8.812,0,0,1-7.974-5.039,8.759,8.759,0,0,1,4.228-11.628c.066-.031.132-.06.2-.09a8.576,8.576,0,0,1,3.457-.722,8.743,8.743,0,0,1,3.746,16.668ZM295.233,276a10.525,10.525,0,0,0-9.523-6.02,10.226,10.226,0,0,0-4.366.971,10.462,10.462,0,0,0-5.049,13.889,10.524,10.524,0,0,0,9.523,6.019,10.244,10.244,0,0,0,4.131-.863l.02-.009q.108-.048.216-.1A10.461,10.461,0,0,0,295.233,276Z" transform="translate(-250.866 -246.006)" fill="#bcfdac" stroke="#bcfdac" stroke-width="0.5"/></g><g clip-path="url(#a)"><path d="M343.179,334.927l-1.97.862-.827-1.888,1.736-.759a4.9,4.9,0,0,1,1.694-.524c.342,0,.529.152.717.58C344.816,333.853,344.775,334.215,343.179,334.927Zm1.691,3.562c-.811.355-1.519.665-2.084.9l-.945-2.161,1.965-.86a4.671,4.671,0,0,1,1.643-.472c.43,0,.669.2.914.757C346.669,337.36,346.62,337.723,344.87,338.489Zm1.243-4.034a2.559,2.559,0,0,0-2-3.611,6.856,6.856,0,0,0-2.622.744c-1.37.6-2.122.939-3.087,1.458l-.309.166,3.646,8.335.334-.118c1.1-.392,1.9-.725,3.6-1.466,2.148-.94,3.308-1.917,2.45-3.877A2.3,2.3,0,0,0,346.113,334.455Z" transform="translate(-308.077 -301.468)" fill="#bcfdac" stroke="#bcfdac" stroke-width="0.5"/></g><g clip-path="url(#a)"><path d="M142.514,12.319c.348,0,.728.308,1.044.845L152.5,28.39a1.411,1.411,0,0,1,.228,1.327,1.412,1.412,0,0,1-1.256.485l-17.656.129h-.025a1.393,1.393,0,0,1-1.24-.469,1.414,1.414,0,0,1,.209-1.328l8.717-15.356C141.785,12.632,142.164,12.319,142.514,12.319Zm-8.726,19.84h0l17.694-.129a3.129,3.129,0,0,0,2.832-1.41,3.128,3.128,0,0,0-.241-3.154l-8.94-15.227a2.832,2.832,0,0,0-5.248.038l-8.717,15.356a2.828,2.828,0,0,0,2.62,4.526Z" transform="translate(-119.028 -9.559)" fill="#bcfdac" stroke="#bcfdac" stroke-width="0.5"/></g><g clip-path="url(#a)"><path d="M222.9,110.2a13.87,13.87,0,0,0,3.2-.288l.353-.077-.252-1.516-.359.041a24.726,24.726,0,0,1-2.937.131c-2.073,0-2.673-.676-2.673-3.013s.6-3.013,2.673-3.013c1.173,0,1.762.032,2.719.108l.344.028.273-1.523-.368-.071a13.65,13.65,0,0,0-2.968-.25c-3.328,0-4.565,1.28-4.565,4.723S219.569,110.2,222.9,110.2Z" transform="translate(-198.946 -91.813)" fill="#bcfdac" stroke="#bcfdac" stroke-width="0.5"/></g></svg>